<svg width="80" height="28" viewBox="0 0 80 28" fill="none" xmlns="http://www.w3.org/2000/svg">
<path d="M11.4655 0.193237C11.5284 0.339944 11.4197 0.474113 11.3305 0.587604C10.6993 1.39824 10.2031 2.30478 10.0053 3.27938C9.92783 3.47941 9.9449 3.62848 10.0053 3.64509C11.2301 3.54764 12.6118 3.55887 13.8177 3.79228C16.012 4.19259 18.0628 5.19862 19.639 6.63703C21.2106 8.06063 22.3136 9.9053 22.7599 11.8788C23.2548 14.0157 22.9783 16.2903 21.9886 18.2805C19.89 22.3445 16.3521 25.7821 12.0233 27.9611C11.8836 28.0199 11.6824 28.0222 11.5867 27.8964C11.474 27.7645 11.5206 27.5768 11.632 27.4569C12.216 26.7186 12.6236 25.87 12.8451 24.985C12.8877 24.8015 12.946 24.6157 12.9283 24.4268C12.8569 24.3424 12.739 24.368 12.6387 24.371C10.5374 24.5616 8.37524 24.2213 6.47657 23.3804C4.44287 22.4925 2.71724 21.041 1.57613 19.2765C0.519027 17.6533 -0.0367465 15.763 0.00188638 13.8773C0.00907389 12.1467 0.530168 10.4303 1.44774 8.91531C3.58369 5.19927 6.93729 2.06347 10.9865 0.0376555C11.1562 -0.0478286 11.4072 0.0156739 11.4655 0.193237ZM10.8684 9.96823C9.61859 10.1203 8.46571 10.7855 7.76574 11.7333C7.2919 12.3843 7.00476 13.1575 7.01069 13.9403C6.97538 14.9891 7.43673 16.0397 8.23634 16.7952C8.93497 17.477 9.90564 17.9212 10.9235 18.04C11.9596 18.1641 13.0417 17.9444 13.9193 17.4282C14.8113 16.9152 15.491 16.105 15.7951 15.1875C16.3659 13.5946 15.6817 11.7286 14.1926 10.7445C13.2574 10.0995 12.0311 9.81322 10.8684 9.96823V9.96823Z" fill="url(#paint0_linear_302_4)"/>
<path d="M40.5256 14.4545C40.5256 15.9119 40.2422 17.1413 39.6754 18.1428C39.1087 19.1399 38.3438 19.8963 37.3807 20.4119C36.4176 20.9233 35.3438 21.179 34.1591 21.179C32.9659 21.179 31.8878 20.9212 30.9247 20.4055C29.9659 19.8857 29.2031 19.1271 28.6364 18.13C28.0739 17.1286 27.7926 15.9034 27.7926 14.4545C27.7926 12.9972 28.0739 11.7699 28.6364 10.7727C29.2031 9.77131 29.9659 9.01491 30.9247 8.50355C31.8878 7.98793 32.9659 7.73011 34.1591 7.73011C35.3438 7.73011 36.4176 7.98793 37.3807 8.50355C38.3438 9.01491 39.1087 9.77131 39.6754 10.7727C40.2422 11.7699 40.5256 12.9972 40.5256 14.4545ZM36.8693 14.4545C36.8693 13.6705 36.7649 13.0099 36.5561 12.473C36.3516 11.9318 36.0469 11.5227 35.642 11.2457C35.2415 10.9645 34.7472 10.8239 34.1591 10.8239C33.571 10.8239 33.0746 10.9645 32.6697 11.2457C32.2692 11.5227 31.9645 11.9318 31.7557 12.473C31.5511 13.0099 31.4489 13.6705 31.4489 14.4545C31.4489 15.2386 31.5511 15.9013 31.7557 16.4425C31.9645 16.9794 32.2692 17.3885 32.6697 17.6697C33.0746 17.9467 33.571 18.0852 34.1591 18.0852C34.7472 18.0852 35.2415 17.9467 35.642 17.6697C36.0469 17.3885 36.3516 16.9794 36.5561 16.4425C36.7649 15.9013 36.8693 15.2386 36.8693 14.4545ZM41.5011 21V11.1818H44.9272V13.0483H45.0295C45.2084 12.358 45.4918 11.853 45.8796 11.5334C46.2717 11.2138 46.7298 11.054 47.2539 11.054C47.4073 11.054 47.5586 11.0668 47.7077 11.0923C47.8611 11.1136 48.0082 11.1456 48.1488 11.1882V14.1989C47.9741 14.1392 47.7589 14.0945 47.5032 14.0646C47.2475 14.0348 47.028 14.0199 46.8448 14.0199C46.4996 14.0199 46.1886 14.0987 45.9116 14.2564C45.6388 14.4098 45.4236 14.6271 45.266 14.9084C45.1083 15.1854 45.0295 15.5114 45.0295 15.8864V21H41.5011ZM48.5857 21V11.1818H52.1142V21H48.5857ZM50.3499 10.1591C49.8727 10.1591 49.4636 10.0014 49.1227 9.68608C48.7818 9.37074 48.6113 8.99148 48.6113 8.5483C48.6113 8.10511 48.7818 7.72585 49.1227 7.41051C49.4636 7.09517 49.8727 6.9375 50.3499 6.9375C50.8315 6.9375 51.2406 7.09517 51.5772 7.41051C51.9181 7.72585 52.0886 8.10511 52.0886 8.5483C52.0886 8.99148 51.9181 9.37074 51.5772 9.68608C51.2406 10.0014 50.8315 10.1591 50.3499 10.1591ZM57.922 24.8864C56.9377 24.8864 56.0939 24.7457 55.3908 24.4645C54.6919 24.1875 54.1486 23.804 53.7608 23.3139C53.3773 22.8281 53.1621 22.2699 53.1152 21.6392H56.5158C56.5499 21.848 56.6351 22.0163 56.7715 22.1442C56.9078 22.272 57.0825 22.3636 57.2956 22.419C57.5129 22.4787 57.7558 22.5085 58.0243 22.5085C58.4803 22.5085 58.8574 22.3977 59.1557 22.1761C59.4583 21.9545 59.6095 21.554 59.6095 20.9744V19.3125H59.5073C59.3794 19.6449 59.1834 19.9283 58.9192 20.1626C58.655 20.3928 58.3375 20.5696 57.9668 20.6932C57.596 20.8125 57.1891 20.8722 56.7459 20.8722C56.047 20.8722 55.4036 20.7102 54.8155 20.3864C54.2317 20.0625 53.7629 19.549 53.4092 18.8459C53.0598 18.1428 52.8851 17.2244 52.8851 16.0909C52.8851 14.9062 53.0683 13.9432 53.4348 13.2017C53.8056 12.4602 54.2828 11.9169 54.8666 11.5717C55.4547 11.2266 56.0726 11.054 56.7203 11.054C57.2061 11.054 57.6323 11.1392 57.9987 11.3097C58.3652 11.4759 58.672 11.6996 58.9192 11.9808C59.1664 12.2578 59.3539 12.5625 59.4817 12.8949H59.5584V11.1818H63.0868V20.9744C63.0868 21.8054 62.8716 22.5107 62.4412 23.0902C62.0151 23.674 61.4142 24.1193 60.6387 24.4261C59.8631 24.733 58.9575 24.8864 57.922 24.8864ZM58.0499 18.3665C58.3737 18.3665 58.6507 18.277 58.8808 18.098C59.1152 17.9148 59.2942 17.6548 59.4178 17.3182C59.5456 16.9773 59.6095 16.5682 59.6095 16.0909C59.6095 15.6051 59.5456 15.1896 59.4178 14.8445C59.2942 14.495 59.1152 14.2287 58.8808 14.0455C58.6507 13.858 58.3737 13.7642 58.0499 13.7642C57.726 13.7642 57.449 13.858 57.2189 14.0455C56.9931 14.2287 56.8183 14.495 56.6948 14.8445C56.5754 15.1896 56.5158 15.6051 56.5158 16.0909C56.5158 16.5767 56.5754 16.9901 56.6948 17.331C56.8183 17.6676 56.9931 17.9254 57.2189 18.1044C57.449 18.2791 57.726 18.3665 58.0499 18.3665ZM64.1614 21V11.1818H67.6898V21H64.1614ZM65.9256 10.1591C65.4483 10.1591 65.0392 10.0014 64.6983 9.68608C64.3574 9.37074 64.1869 8.99148 64.1869 8.5483C64.1869 8.10511 64.3574 7.72585 64.6983 7.41051C65.0392 7.09517 65.4483 6.9375 65.9256 6.9375C66.4071 6.9375 66.8162 7.09517 67.1528 7.41051C67.4938 7.72585 67.6642 8.10511 67.6642 8.5483C67.6642 8.99148 67.4938 9.37074 67.1528 9.68608C66.8162 10.0014 66.4071 10.1591 65.9256 10.1591ZM72.296 15.4773V21H68.7675V11.1818H72.117V13.0483H72.2192C72.4323 12.4261 72.8073 11.9382 73.3442 11.5845C73.8854 11.2308 74.5161 11.054 75.2363 11.054C75.9309 11.054 76.5339 11.2138 77.0452 11.5334C77.5609 11.8487 77.9593 12.2834 78.2406 12.8374C78.5261 13.3913 78.6667 14.0241 78.6624 14.7358V21H75.134V15.4773C75.1383 14.9915 75.0147 14.6101 74.7633 14.3331C74.5161 14.0561 74.171 13.9176 73.7278 13.9176C73.438 13.9176 73.1844 13.9815 72.9671 14.1094C72.7541 14.233 72.59 14.4119 72.4749 14.6463C72.3599 14.8764 72.3002 15.1534 72.296 15.4773Z" fill="#AFAFAF"/>
<defs>
<linearGradient id="paint0_linear_302_4" x1="11.5" y1="0" x2="11.5" y2="28" gradientUnits="userSpaceOnUse">
<stop stop-color="#FF9900"/>
<stop offset="1" stop-color="#F05A22"/>
</linearGradient>
</defs>
</svg>
