<svg width="56" height="56" viewBox="0 0 56 56" fill="none" xmlns="http://www.w3.org/2000/svg">
<g id="Logo">
<g id="Logo_2">
<path id="Vector" d="M48.3955 44.3761C48.3296 44.3016 48.2626 44.2258 48.193 44.1501C44.9244 40.661 40.8123 38.0726 36.2529 36.6343C31.6935 35.196 26.8405 34.9563 22.1616 35.9382C22.1484 35.9413 22.1347 35.9398 22.1225 35.9342C22.1102 35.9286 22.1002 35.9191 22.0939 35.9072C22.0877 35.8952 22.0856 35.8816 22.0879 35.8683C22.0903 35.8551 22.0969 35.843 22.1069 35.8339L46.9908 12.5472C47.464 12.1051 47.9483 11.6132 48.4712 11.0419C48.8187 10.6776 49.0185 10.1972 49.0318 9.69397C49.0451 9.1907 48.871 8.70044 48.5432 8.3183C48.3588 8.11587 48.1341 7.95419 47.8836 7.84354C47.633 7.7329 47.3622 7.67572 47.0883 7.67572C46.8144 7.67572 46.5436 7.7329 46.293 7.84354C46.0425 7.95419 45.8178 8.11587 45.6333 8.3183C45.154 8.84241 44.718 9.28824 44.3007 9.68442C42.0097 11.8287 39.3188 13.5009 36.3816 14.6052C33.4445 15.7095 30.3185 16.2244 27.1823 16.1206C24.0461 16.0168 20.961 15.2963 18.1033 14.0002C15.2455 12.7041 12.6711 10.8578 10.5269 8.56671C10.4859 8.52324 10.4474 8.47849 10.4027 8.43254L10.3369 8.35681C10.0031 7.96665 9.53349 7.71789 9.0232 7.66094C8.5129 7.60398 8.00002 7.74308 7.58842 8.05003C7.37655 8.21683 7.20124 8.42543 7.07337 8.66282C6.9455 8.90022 6.8678 9.16134 6.84509 9.43003C6.82238 9.69872 6.85514 9.96918 6.94135 10.2247C7.02756 10.4802 7.16537 10.7152 7.34623 10.9152L7.43814 11.0195C7.50645 11.0978 7.57476 11.1761 7.64679 11.2543C10.1391 13.9293 13.1371 16.0835 16.4674 17.5922C19.7977 19.1009 23.3942 19.9341 27.0487 20.0436C27.365 20.0544 27.6804 20.0594 27.995 20.0585C29.8995 20.0576 31.7988 19.8616 33.6633 19.4736C33.6765 19.4705 33.6902 19.472 33.7024 19.4776C33.7147 19.4832 33.7247 19.4927 33.731 19.5046C33.7372 19.5166 33.7393 19.5302 33.737 19.5435C33.7346 19.5567 33.7279 19.5688 33.718 19.5779L8.85274 42.846C8.37955 43.2882 7.89394 43.7824 7.36984 44.3525C7.02242 44.7165 6.82267 45.1967 6.80936 45.6998C6.79605 46.2028 6.97013 46.6929 7.2978 47.0748C7.48208 47.2776 7.70669 47.4396 7.95724 47.5505C8.2078 47.6614 8.47876 47.7186 8.75275 47.7186C9.02674 47.7186 9.29771 47.6614 9.54827 47.5505C9.79882 47.4396 10.0234 47.2776 10.2077 47.0748C10.6884 46.5495 11.1243 46.1049 11.5416 45.7087C16.1719 41.3852 22.328 39.0748 28.6596 39.2843C34.9912 39.4939 40.9811 42.2062 45.3154 46.8264C45.3551 46.8687 45.3924 46.9122 45.4297 46.9507L45.5762 47.1171C45.9272 47.5033 46.4172 47.7343 46.9384 47.7592C47.4597 47.7841 47.9695 47.6009 48.3557 47.25C48.7419 46.899 48.9729 46.409 48.9978 45.8878C49.0227 45.3665 48.8396 44.8567 48.4886 44.4705L48.3955 44.3761Z" fill="#FF5000"/>
<path id="Vector_2" d="M10.4958 26.7179C10.5035 26.711 10.5094 26.7023 10.5131 26.6927C10.5167 26.683 10.5181 26.6726 10.517 26.6624C10.5159 26.6521 10.5124 26.6422 10.5068 26.6335C10.5012 26.6248 10.4936 26.6176 10.4847 26.6124L8.31001 25.3195C6.54657 24.2673 4.87035 23.0753 3.29746 21.7551C2.95405 21.454 2.51834 21.2789 2.06208 21.2586C1.60583 21.2383 1.15626 21.3739 0.787455 21.6433C0.551968 21.8219 0.359693 22.0512 0.224873 22.3142C0.0900525 22.5772 0.0161493 22.8672 0.00863472 23.1627C0.00112008 23.4581 0.0601902 23.7515 0.181466 24.021C0.302741 24.2905 0.483113 24.5293 0.709217 24.7196C1.78599 25.625 2.905 26.4758 4.05257 27.2632C4.05971 27.2682 4.06564 27.2747 4.06993 27.2823C4.07422 27.2899 4.07675 27.2983 4.07735 27.307C4.07794 27.3157 4.07658 27.3244 4.07337 27.3325C4.07015 27.3406 4.06517 27.3479 4.05878 27.3538L0.664502 30.5307C0.283794 30.8757 0.0485944 31.3526 0.00661646 31.8647C-0.0353615 32.3767 0.119028 32.8856 0.438467 33.2879C0.610375 33.4934 0.822415 33.6617 1.06161 33.7823C1.3008 33.903 1.5621 33.9736 1.82952 33.9897C2.09694 34.0059 2.36485 33.9672 2.61683 33.8762C2.86881 33.7853 3.09957 33.6438 3.29497 33.4605L10.4958 26.7179Z" fill="#FF5000"/>
<path id="Vector_3" d="M21.0363 22.6393C15.2979 21.3363 10.0479 18.4294 5.89811 14.2573C5.70476 14.0635 5.47311 13.9122 5.21795 13.813C4.96279 13.7137 4.68974 13.6688 4.41624 13.6811C4.14274 13.6933 3.87481 13.7625 3.62956 13.8842C3.38431 14.0059 3.16715 14.1774 2.99193 14.3878C2.67954 14.7865 2.52693 15.2874 2.5639 15.7926C2.60087 16.2978 2.82476 16.7711 3.19188 17.1201C6.97137 20.8936 11.5642 23.7522 16.6187 25.4772C16.6283 25.4804 16.6369 25.4861 16.6436 25.4936C16.6504 25.5012 16.655 25.5103 16.6572 25.5202C16.6593 25.5301 16.6588 25.5404 16.6558 25.5501C16.6527 25.5597 16.6472 25.5684 16.6398 25.5753L3.87124 37.5242C3.62285 37.7544 3.38232 37.987 3.14966 38.2222C2.9546 38.411 2.79936 38.6371 2.69312 38.8869C2.58687 39.1367 2.53178 39.4053 2.53109 39.6768C2.53039 39.9483 2.58411 40.2172 2.68907 40.4675C2.79404 40.7179 2.94811 40.9448 3.1422 41.1346C3.51541 41.4761 4.00574 41.6607 4.51147 41.6503C5.0172 41.6399 5.49952 41.4352 5.85837 41.0787C6.08813 40.8501 6.32038 40.6229 6.56008 40.3993L24.8479 23.2752C24.8571 23.2669 24.8635 23.256 24.8665 23.244C24.8694 23.232 24.8687 23.2194 24.8645 23.2078C24.8602 23.1962 24.8526 23.1861 24.8425 23.1789C24.8325 23.1716 24.8205 23.1675 24.8082 23.1671C23.5385 23.0868 22.2767 22.91 21.0339 22.6381" fill="#FF5000"/>
<path id="Vector_4" d="M51.7897 28.0382L55.184 24.8625C55.5646 24.5171 55.7996 24.04 55.8414 23.5278C55.8831 23.0155 55.7285 22.5065 55.4088 22.1041C55.237 21.8985 55.025 21.7301 54.7858 21.6093C54.5466 21.4886 54.2852 21.4179 54.0178 21.4018C53.7503 21.3856 53.4823 21.4242 53.2303 21.5153C52.9783 21.6064 52.7476 21.748 52.5523 21.9315L45.3489 28.6741C45.3415 28.6812 45.3358 28.6899 45.3323 28.6995C45.3288 28.7091 45.3275 28.7194 45.3286 28.7296C45.3297 28.7398 45.3331 28.7496 45.3385 28.7583C45.344 28.767 45.3514 28.7742 45.3601 28.7796L47.5347 30.0725C49.2982 31.1248 50.9744 32.3168 52.5473 33.6369C52.8908 33.9378 53.3265 34.1128 53.7827 34.1331C54.2389 34.1535 54.6884 34.0179 55.0573 33.7487C55.2928 33.5701 55.4851 33.3408 55.6199 33.0778C55.7547 32.8148 55.8286 32.5248 55.8361 32.2293C55.8437 31.9339 55.7846 31.6406 55.6633 31.371C55.542 31.1015 55.3617 30.8627 55.1356 30.6724C54.0588 29.767 52.941 28.9163 51.7934 28.1289C51.786 28.1241 51.7798 28.1177 51.7753 28.1102C51.7707 28.1027 51.7679 28.0941 51.7672 28.0853C51.7665 28.0766 51.7678 28.0678 51.7711 28.0596C51.7743 28.0514 51.7794 28.0441 51.786 28.0382" fill="#FF5000"/>
<path id="Vector_5" d="M39.2323 29.9209C39.2228 29.9176 39.2143 29.9118 39.2077 29.9042C39.2011 29.8966 39.1966 29.8874 39.1946 29.8775C39.1926 29.8676 39.1932 29.8574 39.1963 29.8478C39.1994 29.8382 39.205 29.8296 39.2124 29.8228L51.9797 17.8751C52.2281 17.6466 52.4653 17.4131 52.7013 17.1796C52.8965 16.9908 53.0519 16.7647 53.1582 16.5148C53.2646 16.2649 53.3198 15.9963 53.3206 15.7247C53.3214 15.4531 53.2678 15.184 53.163 14.9335C53.0581 14.683 52.9041 14.456 52.71 14.266C52.3368 13.9245 51.8465 13.7399 51.3408 13.7503C50.835 13.7607 50.3527 13.9654 49.9939 14.3219C49.7641 14.5517 49.5306 14.7777 49.2921 15.0013L31.0018 32.1167C30.9927 32.125 30.9862 32.1359 30.9833 32.1479C30.9803 32.1599 30.981 32.1725 30.9853 32.1841C30.9896 32.1957 30.9972 32.2057 31.0072 32.213C31.0172 32.2202 31.0292 32.2243 31.0416 32.2247C32.3113 32.3053 33.573 32.4822 34.8159 32.7538C40.5536 34.0579 45.8029 36.9646 49.9529 41.1358C50.1462 41.3296 50.3779 41.481 50.633 41.5802C50.8882 41.6794 51.1613 41.7243 51.4348 41.712C51.7083 41.6998 51.9762 41.6306 52.2214 41.509C52.4667 41.3873 52.6838 41.2158 52.8591 41.0054C53.1719 40.6069 53.3249 40.106 53.2881 39.6008C53.2514 39.0955 53.0275 38.6221 52.6603 38.2731C48.8805 34.5001 44.2878 31.6415 39.2335 29.9159" fill="#FF5000"/>
<path id="Vector_6" d="M13.838 48.1716C13.5709 48.42 13.3076 48.6832 13.0357 48.9676C12.8543 49.1537 12.7116 49.3738 12.6157 49.6153C12.5199 49.8568 12.4729 50.1149 12.4773 50.3747C12.4818 50.6345 12.5377 50.8908 12.6418 51.1289C12.7458 51.3669 12.896 51.5821 13.0837 51.7618C13.2713 51.9415 13.4927 52.0822 13.7351 52.1759C13.9774 52.2695 14.2359 52.3142 14.4957 52.3075C14.7554 52.3007 15.0112 52.2426 15.2484 52.1364C15.4855 52.0302 15.6992 51.878 15.8772 51.6888C16.1008 51.4553 16.3132 51.2442 16.528 51.0442C19.7304 48.0631 23.9778 46.463 28.3511 46.5902C32.7244 46.7173 36.8717 48.5615 39.8955 51.7235C40.0736 51.9111 40.2869 52.0618 40.5232 52.1669C40.7595 52.272 41.0142 52.3296 41.2728 52.3363C41.5314 52.343 41.7887 52.2987 42.0302 52.2059C42.2716 52.1131 42.4924 51.9737 42.68 51.7956C42.8675 51.6175 43.0182 51.4042 43.1233 51.1679C43.2284 50.9316 43.286 50.6769 43.2927 50.4183C43.2993 50.1597 43.255 49.9024 43.1623 49.6609C43.0695 49.4195 42.9301 49.1987 42.752 49.0112C39.0107 45.1003 33.8802 42.8196 28.4703 42.6625C23.0604 42.5054 17.8061 44.4845 13.8442 48.1716" fill="#FF5000"/>
<path id="Vector_7" d="M34.5414 51.7248C32.5225 50.55 30.2292 49.9295 27.8934 49.926C25.5576 49.9226 23.2624 50.5362 21.24 51.7049C20.7886 51.9666 20.4596 52.3969 20.3255 52.9012C20.1913 53.4054 20.263 53.9423 20.5247 54.3937C20.7864 54.8452 21.2167 55.1741 21.7209 55.3083C22.2252 55.4424 22.7621 55.3709 23.2135 55.1092C24.6345 54.2881 26.2472 53.857 27.8884 53.8596C29.5295 53.8622 31.1409 54.2984 32.5592 55.124C32.7824 55.2545 33.0291 55.3397 33.2853 55.3748C33.5414 55.41 33.802 55.3943 34.0521 55.3288C34.3022 55.2632 34.5369 55.149 34.7428 54.9927C34.9488 54.8364 35.122 54.6412 35.2524 54.418C35.3829 54.1948 35.4681 53.9481 35.5033 53.6919C35.5384 53.4358 35.5227 53.1752 35.4572 52.9251C35.3916 52.675 35.2774 52.4404 35.1212 52.2344C34.9649 52.0284 34.7696 51.8552 34.5464 51.7248" fill="#FF5000"/>
<path id="Vector_8" d="M27.9851 12.7434C33.1907 12.7554 38.205 10.7825 42.0068 7.22658C42.2738 6.97819 42.5359 6.7162 42.8091 6.43179C42.9909 6.24589 43.134 6.02575 43.2301 5.7842C43.3263 5.54266 43.3737 5.28446 43.3695 5.0245C43.3652 4.76455 43.3095 4.50802 43.2056 4.26973C43.1016 4.03144 42.9514 3.81614 42.7637 3.63624C42.576 3.45634 42.3545 3.31538 42.112 3.2216C41.8695 3.12782 41.6109 3.08305 41.351 3.08985C41.0911 3.09666 40.8351 3.15491 40.5978 3.26125C40.3606 3.36758 40.1468 3.51992 39.9688 3.70939C39.7452 3.94288 39.5328 4.15399 39.318 4.35395C36.1156 7.33502 31.8682 8.93513 27.4949 8.80799C23.1216 8.68085 18.9743 6.83668 15.9505 3.6746C15.5908 3.29663 15.0957 3.07701 14.5741 3.06408C14.0525 3.05115 13.5471 3.246 13.1691 3.60569C12.7912 3.96539 12.5716 4.46052 12.5586 4.98213C12.5457 5.50374 12.7405 6.00909 13.1002 6.38706C15.0193 8.40229 17.3289 10.0053 19.8881 11.0984C22.4472 12.1914 25.2023 12.7516 27.9851 12.7447" fill="#FF5000"/>
<path id="Vector_9" d="M21.3046 3.66722C23.3236 4.84213 25.6171 5.46285 27.9531 5.46656C30.289 5.47027 32.5845 4.85679 34.6072 3.68829C35.0586 3.42659 35.3876 2.9963 35.5218 2.49204C35.6559 1.98779 35.5843 1.45091 35.3226 0.99948C35.0609 0.548054 34.6306 0.219072 34.1263 0.0849148C33.6221 -0.0492428 33.0852 0.0224268 32.6338 0.284125C31.2127 1.10517 29.6 1.53621 27.9589 1.53359C26.3177 1.53097 24.7064 1.09477 23.288 0.269192C23.0649 0.138715 22.8183 0.0534462 22.5622 0.0182838C22.3061 -0.0168786 22.0457 -0.00120912 21.7956 0.0642963C21.5456 0.129802 21.3109 0.243904 21.105 0.400104C20.8991 0.556305 20.7259 0.7515 20.5954 0.974616C20.465 1.19773 20.3797 1.44437 20.3446 1.70043C20.3094 1.95649 20.325 2.217 20.3905 2.46703C20.456 2.71706 20.5701 2.95174 20.7263 3.15767C20.8825 3.3636 21.0778 3.53674 21.3009 3.66722" fill="#FF5000"/>
</g>
</g>
</svg>
