<svg width="200" height="56" viewBox="0 0 200 56" fill="none" xmlns="http://www.w3.org/2000/svg">
<g id="Logo" clip-path="url(#clip0_814_4748)">
<g id="Title">
<path id="Vector" d="M128.135 18.4829H117.411C117.168 18.4829 116.926 18.5309 116.701 18.6241C116.476 18.7172 116.272 18.8539 116.1 19.026C115.928 19.1982 115.791 19.4026 115.698 19.6275C115.605 19.8525 115.557 20.0936 115.557 20.3371C115.557 20.5806 115.605 20.8218 115.698 21.0467C115.791 21.2717 115.928 21.4761 116.1 21.6483C116.272 21.8205 116.476 21.9571 116.701 22.0503C116.926 22.1435 117.168 22.1914 117.411 22.1914H127.287C127.518 22.1914 127.739 22.283 127.902 22.4461C128.065 22.6091 128.156 22.8302 128.156 23.0608V25.1833H118.849C118.336 25.1833 117.828 25.2844 117.354 25.4808C116.879 25.6772 116.448 25.9651 116.086 26.328C115.723 26.6909 115.435 27.1218 115.238 27.596C115.042 28.0702 114.941 28.5784 114.941 29.0917V32.9219C114.941 33.9585 115.353 34.9526 116.086 35.6856C116.819 36.4186 117.813 36.8304 118.849 36.8304H128.135C129.172 36.8304 130.166 36.4186 130.899 35.6856C131.632 34.9526 132.044 33.9585 132.044 32.9219V22.3914C132.043 21.355 131.632 20.3612 130.899 19.6284C130.166 18.8957 129.172 18.4841 128.135 18.4841M128.156 32.2526C128.156 32.3667 128.134 32.4797 128.09 32.5852C128.047 32.6907 127.983 32.7865 127.902 32.8672C127.821 32.948 127.725 33.012 127.62 33.0557C127.514 33.0994 127.401 33.1219 127.287 33.1219H119.696C119.582 33.1219 119.469 33.0994 119.363 33.0557C119.258 33.012 119.162 32.948 119.082 32.8672C119.001 32.7865 118.937 32.6907 118.893 32.5852C118.849 32.4797 118.827 32.3667 118.827 32.2526V29.7611C118.827 29.5306 118.918 29.3095 119.082 29.1464C119.245 28.9834 119.466 28.8917 119.696 28.8917H128.156V32.2526Z" fill="#FF5000"/>
<path id="Vector_2" d="M87.4624 25.1832H85.1772C85.1772 25.1161 85.1872 25.0516 85.1872 24.9845V22.3913C85.1872 21.878 85.0861 21.3698 84.8896 20.8956C84.6932 20.4214 84.4054 19.9905 84.0424 19.6276C83.6795 19.2646 83.2486 18.9767 82.7744 18.7803C82.3002 18.5839 81.792 18.4828 81.2787 18.4828H71.9926C71.4793 18.4828 70.9711 18.5839 70.4969 18.7803C70.0227 18.9767 69.5918 19.2646 69.2289 19.6276C68.866 19.9905 68.5781 20.4214 68.3817 20.8956C68.1852 21.3698 68.0842 21.878 68.0842 22.3913V24.9795C68.0842 26.0161 68.4959 27.0102 69.2289 27.7432C69.9619 28.4762 70.956 28.888 71.9926 28.888H74.2791L74.2691 32.9181C74.2689 33.4314 74.3699 33.9398 74.5663 34.414C74.7626 34.8883 75.0505 35.3192 75.4135 35.6821C75.7765 36.0451 76.2074 36.333 76.6817 36.5294C77.1559 36.7258 77.6642 36.8267 78.1775 36.8265H87.4624C88.499 36.8265 89.4931 36.4147 90.2261 35.6818C90.9591 34.9488 91.3709 33.9547 91.3709 32.9181V29.0904C91.3709 28.5771 91.2698 28.0689 91.0734 27.5947C90.8769 27.1205 90.589 26.6896 90.2261 26.3267C89.8632 25.9637 89.4323 25.6759 88.9581 25.4795C88.484 25.2831 87.9757 25.182 87.4624 25.182M71.9715 24.3126V23.0644C71.9715 22.9502 71.994 22.8372 72.0377 22.7317C72.0814 22.6262 72.1454 22.5304 72.2261 22.4496C72.3069 22.3689 72.4027 22.3049 72.5082 22.2612C72.6136 22.2175 72.7267 22.195 72.8409 22.195H80.4168C80.531 22.195 80.644 22.2175 80.7495 22.2612C80.855 22.3049 80.9508 22.3689 81.0315 22.4496C81.1123 22.5304 81.1763 22.6262 81.22 22.7317C81.2637 22.8372 81.2862 22.9502 81.2862 23.0644V25.1758H72.8272C72.5966 25.1758 72.3755 25.0842 72.2124 24.9211C72.0494 24.7581 71.9578 24.5369 71.9578 24.3064M87.4687 32.245C87.4687 32.4756 87.377 32.6967 87.214 32.8597C87.051 33.0227 86.8298 33.1143 86.5993 33.1143H79.0084C78.7778 33.1143 78.5567 33.0227 78.3937 32.8597C78.2307 32.6967 78.1391 32.4756 78.1391 32.245V28.8917H86.5931C86.8236 28.8917 87.0448 28.9833 87.2078 29.1463C87.3709 29.3094 87.4624 29.5305 87.4624 29.7611V32.245H87.4687Z" fill="#FF5000"/>
<path id="Vector_3" d="M175.368 25.182H160.601V23.0595C160.601 22.8289 160.693 22.6077 160.856 22.4447C161.019 22.2817 161.24 22.1901 161.471 22.1901H176.415C176.907 22.1901 177.379 21.9948 177.726 21.647C178.074 21.2993 178.269 20.8276 178.269 20.3359C178.269 19.8441 178.074 19.3724 177.726 19.0247C177.379 18.677 176.907 18.4816 176.415 18.4816H160.622C160.109 18.4816 159.601 18.5827 159.127 18.7791C158.653 18.9755 158.222 19.2634 157.859 19.6263C157.496 19.9893 157.208 20.4202 157.012 20.8944C156.815 21.3686 156.714 21.8768 156.714 22.3901V34.9637C156.714 35.4792 156.919 35.9735 157.283 36.338C157.648 36.7025 158.142 36.9073 158.658 36.9073C159.173 36.9073 159.668 36.7025 160.032 36.338C160.397 35.9735 160.601 35.4792 160.601 34.9637V28.8905H166.113V34.9637C166.113 35.4792 166.318 35.9735 166.682 36.338C167.047 36.7025 167.541 36.9073 168.057 36.9073C168.572 36.9073 169.067 36.7025 169.431 36.338C169.796 35.9735 170 35.4792 170 34.9637V28.8905H174.521C174.752 28.8905 174.973 28.9821 175.136 29.1451C175.299 29.3081 175.391 29.5293 175.391 29.7599V34.9649C175.391 35.4805 175.595 35.9751 175.96 36.3397C176.325 36.7043 176.819 36.9092 177.335 36.9092C177.851 36.9092 178.345 36.7043 178.71 36.3397C179.074 35.9751 179.279 35.4805 179.279 34.9649V29.0904C179.279 28.5771 179.178 28.0688 178.982 27.5945C178.786 27.1203 178.498 26.6893 178.135 26.3264C177.772 25.9634 177.341 25.6755 176.867 25.4792C176.392 25.2828 175.884 25.1818 175.371 25.182" fill="#FF5000"/>
<path id="Vector_4" d="M107.392 18.4828H95.411C94.9403 18.4752 94.4835 18.6416 94.128 18.9501C93.7725 19.2586 93.5434 19.6875 93.4847 20.1545C93.4594 20.4121 93.4882 20.6722 93.5695 20.918C93.6507 21.1638 93.7825 21.3899 93.9563 21.5817C94.1301 21.7736 94.3422 21.9269 94.5788 22.0319C94.8154 22.1368 95.0714 22.1912 95.3302 22.1913H98.8636V25.0043C98.8636 25.5198 99.0684 26.0142 99.4329 26.3787C99.7974 26.7432 100.292 26.948 100.807 26.948C101.323 26.948 101.817 26.7432 102.182 26.3787C102.546 26.0142 102.751 25.5198 102.751 25.0043V22.1913H106.538C106.768 22.1913 106.989 22.2829 107.152 22.446C107.315 22.609 107.407 22.8302 107.407 23.0607V32.2412C107.407 32.3554 107.385 32.4685 107.341 32.5739C107.297 32.6794 107.233 32.7753 107.152 32.856C107.072 32.9367 106.976 33.0008 106.87 33.0445C106.765 33.0881 106.652 33.1106 106.538 33.1106H98.9518C98.8376 33.1106 98.7246 33.0881 98.6191 33.0445C98.5136 33.0008 98.4178 32.9367 98.337 32.856C98.2563 32.7753 98.1923 32.6794 98.1486 32.5739C98.1049 32.4685 98.0824 32.3554 98.0824 32.2412V30.6081C98.0824 30.0924 97.8776 29.5978 97.513 29.2332C97.1484 28.8686 96.6538 28.6638 96.1381 28.6638C95.6225 28.6638 95.1279 28.8686 94.7633 29.2332C94.3987 29.5978 94.1939 30.0924 94.1939 30.6081V32.9107C94.1939 33.9472 94.6057 34.9414 95.3386 35.6744C96.0716 36.4073 97.0657 36.8191 98.1023 36.8191H107.388C107.902 36.8191 108.41 36.718 108.884 36.5216C109.358 36.3252 109.789 36.0373 110.152 35.6744C110.515 35.3114 110.803 34.8805 110.999 34.4063C111.196 33.9321 111.297 33.4239 111.297 32.9107V22.3801C111.297 21.8669 111.196 21.3587 111 20.8845C110.804 20.4103 110.516 19.9794 110.153 19.6165C109.79 19.2535 109.359 18.9656 108.885 18.7692C108.411 18.5728 107.903 18.4717 107.39 18.4717" fill="#FF5000"/>
<path id="Vector_5" d="M148.793 36.829C149.306 36.829 149.814 36.7279 150.289 36.5315C150.763 36.3351 151.194 36.0472 151.557 35.6843C151.919 35.3213 152.207 34.8905 152.404 34.4163C152.6 33.9421 152.701 33.4338 152.701 32.9205V22.3901C152.701 21.8768 152.6 21.3685 152.404 20.8943C152.207 20.4201 151.919 19.9893 151.557 19.6263C151.194 19.2634 150.763 18.9755 150.289 18.7791C149.814 18.5827 149.306 18.4816 148.793 18.4816H139.507C138.47 18.4819 137.476 18.8938 136.743 19.6267C136.01 20.3596 135.599 21.3536 135.598 22.3901V23.6568C135.598 24.1723 135.803 24.6667 136.168 25.0312C136.532 25.3957 137.026 25.6005 137.542 25.6005C138.057 25.6005 138.552 25.3957 138.916 25.0312C139.281 24.6667 139.486 24.1723 139.486 23.6568V23.0632C139.486 22.949 139.508 22.836 139.552 22.7305C139.595 22.625 139.66 22.5291 139.74 22.4484C139.821 22.3677 139.917 22.3037 140.022 22.26C140.128 22.2163 140.241 22.1938 140.355 22.1938H147.931C148.045 22.1938 148.158 22.2163 148.264 22.26C148.369 22.3037 148.465 22.3677 148.546 22.4484C148.626 22.5291 148.69 22.625 148.734 22.7305C148.778 22.836 148.8 22.949 148.8 23.0632V32.2536C148.8 32.4842 148.709 32.7054 148.546 32.8684C148.383 33.0314 148.161 33.123 147.931 33.123H140.345C140.114 33.123 139.893 33.0314 139.73 32.8684C139.567 32.7054 139.476 32.4842 139.476 32.2536V30.6267C139.476 30.1112 139.271 29.6168 138.906 29.2523C138.542 28.8878 138.048 28.683 137.532 28.683C137.017 28.683 136.522 28.8878 136.158 29.2523C135.793 29.6168 135.588 30.1112 135.588 30.6267V32.9293C135.588 33.9658 136 34.96 136.733 35.693C137.466 36.4259 138.46 36.8377 139.497 36.8377L148.793 36.829Z" fill="#FF5000"/>
<path id="Vector_6" d="M200 34.9649V22.3901C200 21.3537 199.588 20.3598 198.855 19.6271C198.122 18.8944 197.128 18.4828 196.092 18.4828H187.174C186.661 18.4826 186.153 18.5836 185.679 18.7799C185.205 18.9761 184.774 19.264 184.411 19.6268C184.048 19.9896 183.76 20.4204 183.563 20.8945C183.367 21.3687 183.266 21.8769 183.266 22.3901V34.9649C183.266 35.4804 183.471 35.9747 183.835 36.3392C184.2 36.7037 184.694 36.9086 185.21 36.9086C185.725 36.9086 186.219 36.7037 186.584 36.3392C186.948 35.9747 187.153 35.4804 187.153 34.9649V23.0669C187.153 22.9527 187.176 22.8397 187.219 22.7342C187.263 22.6287 187.327 22.5329 187.408 22.4521C187.489 22.3714 187.584 22.3074 187.69 22.2637C187.795 22.22 187.908 22.1975 188.023 22.1975H195.232C195.346 22.1975 195.459 22.22 195.565 22.2637C195.67 22.3074 195.766 22.3714 195.847 22.4521C195.928 22.5329 195.992 22.6287 196.035 22.7342C196.079 22.8397 196.102 22.9527 196.102 23.0669V34.9649C196.102 35.4806 196.306 35.975 196.671 36.3397C197.036 36.7043 197.53 36.9092 198.046 36.9092C198.561 36.9092 199.056 36.7043 199.421 36.3397C199.785 35.975 199.99 35.4806 199.99 34.9649" fill="#FF5000"/>
</g>
<g id="Logo_2">
<path id="Vector_7" d="M48.3991 44.3765C48.3333 44.302 48.2662 44.2262 48.1967 44.1504C44.9281 40.6614 40.816 38.073 36.2566 36.6347C31.6972 35.1964 26.8442 34.9567 22.1652 35.9386C22.1521 35.9416 22.1384 35.9402 22.1261 35.9346C22.1139 35.929 22.1039 35.9194 22.0976 35.9075C22.0914 35.8956 22.0892 35.882 22.0916 35.8687C22.0939 35.8554 22.1006 35.8433 22.1106 35.8343L46.9945 12.5476C47.4676 12.1054 47.952 11.6136 48.4749 11.0423C48.8224 10.678 49.0222 10.1976 49.0355 9.69434C49.0488 9.19107 48.8747 8.70081 48.5469 8.31867C48.3624 8.11624 48.1378 7.95455 47.8872 7.84391C47.6367 7.73327 47.3658 7.67608 47.092 7.67608C46.8181 7.67608 46.5472 7.73327 46.2967 7.84391C46.0462 7.95455 45.8215 8.11624 45.637 8.31867C45.1576 8.84277 44.7217 9.28861 44.3044 9.68479C42.0134 11.8291 39.3225 13.5012 36.3853 14.6055C33.4481 15.7099 30.3222 16.2248 27.186 16.121C24.0497 16.0172 20.9647 15.2967 18.1069 14.0006C15.2492 12.7044 12.6747 10.8582 10.5306 8.56707C10.4896 8.5236 10.4511 8.47885 10.4064 8.4329L10.3405 8.35717C10.0067 7.96702 9.53716 7.71826 9.02687 7.6613C8.51657 7.60435 8.00369 7.74344 7.59208 8.0504C7.38022 8.2172 7.20491 8.42579 7.07704 8.66319C6.94917 8.90059 6.87147 9.16171 6.84876 9.43039C6.82605 9.69908 6.85881 9.96955 6.94502 10.225C7.03123 10.4805 7.16904 10.7156 7.3499 10.9156L7.44181 11.0199C7.51012 11.0982 7.57843 11.1764 7.65046 11.2547C10.1427 13.9297 13.1408 16.0839 16.4711 17.5926C19.8014 19.1013 23.3979 19.9344 27.0523 20.044C27.3686 20.0547 27.6841 20.0597 27.9987 20.0589C29.9032 20.058 31.8025 19.8619 33.667 19.4739C33.6801 19.4709 33.6939 19.4723 33.7061 19.4779C33.7184 19.4836 33.7284 19.4931 33.7346 19.505C33.7409 19.5169 33.743 19.5306 33.7406 19.5438C33.7383 19.5571 33.7316 19.5692 33.7217 19.5782L8.85641 42.8464C8.38322 43.2885 7.89761 43.7828 7.37351 44.3528C7.02609 44.7169 6.82634 45.1971 6.81303 45.7001C6.79972 46.2032 6.9738 46.6933 7.30147 47.0752C7.48575 47.278 7.71036 47.44 7.96091 47.5509C8.21147 47.6617 8.48243 47.719 8.75642 47.719C9.03041 47.719 9.30138 47.6617 9.55194 47.5509C9.80249 47.44 10.0271 47.278 10.2114 47.0752C10.692 46.5499 11.1279 46.1053 11.5452 45.7091C16.1755 41.3855 22.3317 39.0752 28.6633 39.2847C34.9948 39.4942 40.9848 42.2066 45.3191 46.8268C45.3588 46.869 45.3961 46.9125 45.4333 46.951L45.5799 47.1174C45.9308 47.5036 46.4208 47.7346 46.9421 47.7596C47.4634 47.7845 47.9732 47.6013 48.3594 47.2503C48.7456 46.8994 48.9766 46.4094 49.0015 45.8881C49.0264 45.3669 48.8432 44.8571 48.4923 44.4708L48.3991 44.3765Z" fill="#FF5000"/>
<path id="Vector_8" d="M10.4995 26.7183C10.5072 26.7113 10.5131 26.7027 10.5167 26.6931C10.5204 26.6834 10.5218 26.673 10.5207 26.6627C10.5196 26.6524 10.5161 26.6425 10.5105 26.6338C10.5049 26.6252 10.4973 26.618 10.4883 26.6128L8.31368 25.3199C6.55024 24.2676 4.87402 23.0757 3.30113 21.7555C2.95772 21.4544 2.52201 21.2793 2.06575 21.2589C1.6095 21.2386 1.15993 21.3743 0.791125 21.6437C0.555638 21.8222 0.363362 22.0516 0.228542 22.3146C0.0937223 22.5776 0.0198191 22.8676 0.0123045 23.163C0.00478982 23.4585 0.06386 23.7518 0.185136 24.0214C0.306411 24.2909 0.486783 24.5296 0.712886 24.72C1.78966 25.6254 2.90867 26.4761 4.05624 27.2635C4.06338 27.2685 4.06931 27.2751 4.0736 27.2826C4.07789 27.2902 4.08042 27.2987 4.08102 27.3074C4.08161 27.3161 4.08025 27.3248 4.07704 27.3329C4.07382 27.341 4.06884 27.3483 4.06245 27.3542L0.668172 30.5311C0.287464 30.8761 0.0522642 31.353 0.0102862 31.865C-0.0316918 32.3771 0.122698 32.8859 0.442137 33.2883C0.614044 33.4938 0.826085 33.662 1.06528 33.7827C1.30447 33.9034 1.56577 33.9739 1.83319 33.9901C2.10061 34.0062 2.36852 33.9676 2.6205 33.8766C2.87248 33.7856 3.10324 33.6442 3.29864 33.4609L10.4995 26.7183Z" fill="#FF5000"/>
<path id="Vector_9" d="M21.04 22.6397C15.3016 21.3367 10.0516 18.4297 5.90178 14.2577C5.70843 14.0639 5.47678 13.9125 5.22162 13.8133C4.96646 13.7141 4.6934 13.6691 4.41991 13.6814C4.14641 13.6937 3.87848 13.7629 3.63323 13.8846C3.38798 14.0063 3.17082 14.1778 2.9956 14.3881C2.68321 14.7869 2.5306 15.2877 2.56757 15.7929C2.60454 16.2981 2.82843 16.7714 3.19555 17.1205C6.97504 20.8939 11.5679 23.7525 16.6224 25.4775C16.632 25.4808 16.6406 25.4864 16.6473 25.494C16.654 25.5015 16.6587 25.5107 16.6608 25.5206C16.663 25.5305 16.6625 25.5408 16.6594 25.5505C16.6564 25.5601 16.6509 25.5688 16.6435 25.5757L3.87491 37.5245C3.62652 37.7547 3.38599 37.9874 3.15333 38.2225C2.95827 38.4114 2.80303 38.6374 2.69679 38.8873C2.59054 39.1371 2.53545 39.4057 2.53476 39.6772C2.53406 39.9487 2.58778 40.2175 2.69274 40.4679C2.79771 40.7183 2.95178 40.9451 3.14587 41.135C3.51908 41.4764 4.00941 41.6611 4.51514 41.6507C5.02087 41.6403 5.50319 41.4355 5.86204 41.079C6.0918 40.8505 6.32405 40.6232 6.56375 40.3997L24.8516 23.2756C24.8607 23.2673 24.8672 23.2564 24.8702 23.2444C24.8731 23.2324 24.8724 23.2197 24.8681 23.2081C24.8639 23.1965 24.8562 23.1865 24.8462 23.1793C24.8362 23.172 24.8242 23.1679 24.8118 23.1675C23.5421 23.0872 22.2804 22.9104 21.0375 22.6385" fill="#FF5000"/>
<path id="Vector_10" d="M51.7934 28.0386L55.1877 24.8629C55.5683 24.5175 55.8033 24.0404 55.845 23.5281C55.8868 23.0159 55.7321 22.5069 55.4125 22.1045C55.2407 21.8988 55.0286 21.7305 54.7895 21.6097C54.5503 21.4889 54.2889 21.4183 54.0215 21.4021C53.754 21.386 53.486 21.4246 53.234 21.5157C52.982 21.6068 52.7513 21.7484 52.5559 21.9319L45.3526 28.6745C45.3452 28.6816 45.3395 28.6902 45.336 28.6999C45.3324 28.7095 45.3312 28.7198 45.3323 28.73C45.3333 28.7402 45.3368 28.75 45.3422 28.7587C45.3477 28.7674 45.3551 28.7746 45.3638 28.78L47.5384 30.0729C49.3018 31.1252 50.9781 32.3171 52.551 33.6373C52.8945 33.9382 53.3302 34.1132 53.7864 34.1335C54.2426 34.1538 54.6921 34.0183 55.061 33.7491C55.2965 33.5705 55.4888 33.3412 55.6236 33.0782C55.7584 32.8152 55.8323 32.5252 55.8398 32.2297C55.8473 31.9343 55.7883 31.6409 55.667 31.3714C55.5457 31.1019 55.3653 30.8631 55.1392 30.6727C54.0625 29.7673 52.9447 28.9166 51.7971 28.1292C51.7897 28.1245 51.7835 28.1181 51.7789 28.1106C51.7744 28.103 51.7716 28.0945 51.7709 28.0857C51.7702 28.0769 51.7715 28.0681 51.7748 28.0599C51.778 28.0518 51.7831 28.0444 51.7897 28.0386" fill="#FF5000"/>
<path id="Vector_11" d="M39.2359 29.9213C39.2264 29.9179 39.218 29.9121 39.2114 29.9045C39.2048 29.8969 39.2002 29.8877 39.1982 29.8779C39.1962 29.868 39.1968 29.8577 39.2 29.8481C39.2031 29.8386 39.2086 29.8299 39.2161 29.8231L51.9834 17.8755C52.2318 17.647 52.469 17.4135 52.705 17.18C52.9002 16.9911 53.0555 16.7651 53.1619 16.5152C53.2683 16.2653 53.3235 15.9966 53.3243 15.725C53.3251 15.4534 53.2715 15.1844 53.1666 14.9339C53.0618 14.6833 52.9077 14.4564 52.7137 14.2664C52.3405 13.9249 51.8502 13.7403 51.3444 13.7507C50.8387 13.7611 50.3564 13.9658 49.9975 14.3223C49.7678 14.5521 49.5343 14.7781 49.2958 15.0016L31.0055 32.1171C30.9963 32.1254 30.9899 32.1362 30.9869 32.1482C30.984 32.1602 30.9847 32.1729 30.989 32.1845C30.9932 32.1961 31.0009 32.2061 31.0109 32.2134C31.0209 32.2206 31.0329 32.2247 31.0452 32.2251C32.3149 32.3057 33.5767 32.4826 34.8196 32.7542C40.5572 34.0582 45.8066 36.9649 49.9565 41.1361C50.1499 41.33 50.3815 41.4813 50.6367 41.5806C50.8919 41.6798 51.1649 41.7247 51.4384 41.7124C51.7119 41.7001 51.9799 41.631 52.2251 41.5093C52.4704 41.3876 52.6875 41.2161 52.8627 41.0058C53.1756 40.6073 53.3285 40.1064 53.2918 39.6011C53.255 39.0959 53.0312 38.6225 52.664 38.2734C48.8841 34.5004 44.2914 31.6418 39.2372 29.9163" fill="#FF5000"/>
<path id="Vector_12" d="M13.8416 48.1718C13.5746 48.4202 13.3113 48.6835 13.0393 48.9679C12.858 49.1539 12.7152 49.3741 12.6194 49.6156C12.5236 49.8571 12.4765 50.1152 12.481 50.375C12.4855 50.6347 12.5414 50.891 12.6454 51.1291C12.7495 51.3672 12.8997 51.5823 13.0874 51.762C13.275 51.9417 13.4964 52.0824 13.7388 52.1761C13.9811 52.2698 14.2396 52.3145 14.4993 52.3077C14.7591 52.3009 15.0149 52.2428 15.252 52.1366C15.4892 52.0304 15.7029 51.8783 15.8809 51.689C16.1045 51.4555 16.3168 51.2444 16.5317 51.0444C19.7341 48.0634 23.9815 46.4633 28.3548 46.5904C32.7281 46.7175 36.8754 48.5617 39.8992 51.7238C40.0773 51.9114 40.2906 52.062 40.5269 52.1672C40.7632 52.2723 41.0179 52.3298 41.2765 52.3365C41.535 52.3432 41.7924 52.2989 42.0338 52.2061C42.2753 52.1134 42.4961 51.9739 42.6836 51.7958C42.8712 51.6177 43.0218 51.4045 43.127 51.1682C43.2321 50.9318 43.2896 50.6771 43.2963 50.4185C43.303 50.16 43.2587 49.9026 43.1659 49.6612C43.0732 49.4197 42.9338 49.199 42.7557 49.0114C39.0144 45.1006 33.8838 42.8199 28.4739 42.6627C23.064 42.5056 17.8098 44.4847 13.8478 48.1718" fill="#FF5000"/>
<path id="Vector_13" d="M34.5451 51.725C32.5262 50.5503 30.2328 49.9298 27.8971 49.9263C25.5613 49.9228 23.2661 50.5365 21.2437 51.7052C20.7923 51.9669 20.4633 52.3972 20.3291 52.9014C20.195 53.4057 20.2666 53.9425 20.5283 54.394C20.79 54.8454 21.2203 55.1744 21.7246 55.3085C22.2289 55.4427 22.7658 55.3711 23.2172 55.1094C24.6382 54.2884 26.2509 53.8572 27.8921 53.8599C29.5332 53.8625 31.1445 54.2987 32.5629 55.1243C32.7861 55.2547 33.0328 55.34 33.289 55.3751C33.5451 55.4102 33.8057 55.3946 34.0557 55.329C34.3058 55.2634 34.5405 55.1492 34.7465 54.993C34.9525 54.8367 35.1256 54.6414 35.2561 54.4182C35.3866 54.195 35.4718 53.9483 35.5069 53.6922C35.5421 53.436 35.5264 53.1754 35.4609 52.9254C35.3953 52.6753 35.2811 52.4406 35.1248 52.2346C34.9686 52.0287 34.7733 51.8555 34.5501 51.725" fill="#FF5000"/>
<path id="Vector_14" d="M27.9888 12.7438C33.1943 12.7558 38.2087 10.7829 42.0105 7.22695C42.2775 6.97856 42.5396 6.71656 42.8128 6.43215C42.9945 6.24625 43.1376 6.02611 43.2338 5.78457C43.33 5.54302 43.3773 5.28482 43.3731 5.02487C43.3689 4.76491 43.3132 4.50839 43.2092 4.2701C43.1053 4.0318 42.9551 3.81651 42.7674 3.63661C42.5797 3.45671 42.3582 3.31574 42.1157 3.22197C41.8732 3.12819 41.6145 3.08342 41.3546 3.09022C41.0947 3.09702 40.8388 3.15528 40.6015 3.26161C40.3643 3.36795 40.1505 3.52028 39.9724 3.70976C39.7489 3.94325 39.5365 4.15436 39.3216 4.35431C36.1193 7.33538 31.8718 8.9355 27.4985 8.80835C23.1253 8.68121 18.9779 6.83704 15.9542 3.67497C15.5945 3.29699 15.0994 3.07737 14.5778 3.06445C14.0562 3.05152 13.5508 3.24637 13.1728 3.60606C12.7948 3.96575 12.5752 4.46089 12.5623 4.98249C12.5494 5.5041 12.7442 6.00946 13.1039 6.38743C15.023 8.40266 17.3326 10.0057 19.8917 11.0987C22.4509 12.1918 25.206 12.752 27.9888 12.745" fill="#FF5000"/>
<path id="Vector_15" d="M21.3083 3.66759C23.3273 4.84249 25.6208 5.46322 27.9567 5.46693C30.2927 5.47063 32.5882 4.85715 34.6109 3.68866C35.0623 3.42696 35.3913 2.99667 35.5255 2.49241C35.6596 1.98815 35.588 1.45127 35.3263 0.999846C35.0646 0.54842 34.6342 0.219439 34.13 0.085281C33.6257 -0.0488766 33.0889 0.022793 32.6374 0.284492C31.2164 1.10554 29.6037 1.53657 27.9626 1.53395C26.3214 1.53134 24.7101 1.09514 23.2917 0.269558C23.0686 0.139081 22.8219 0.0538124 22.5659 0.01865C22.3098 -0.0165124 22.0493 -0.00084291 21.7993 0.0646626C21.5493 0.130168 21.3146 0.24427 21.1087 0.40047C20.9027 0.556671 20.7296 0.751867 20.5991 0.974983C20.4686 1.1981 20.3834 1.44473 20.3482 1.7008C20.3131 1.95686 20.3287 2.21737 20.3942 2.46739C20.4597 2.71742 20.5738 2.95211 20.73 3.15804C20.8862 3.36397 21.0814 3.53711 21.3046 3.66759" fill="#FF5000"/>
</g>
</g>
<defs>
<clipPath id="clip0_814_4748">
<rect width="200" height="55.3926" fill="white"/>
</clipPath>
</defs>
</svg>
