<svg width="200" height="53" viewBox="0 0 200 53" fill="none" xmlns="http://www.w3.org/2000/svg">
<g id="Logo" clip-path="url(#clip0_822_4637)">
<g id="Title">
<path id="Vector" d="M76.2249 21.0927L66.1452 28.3962C63.2836 30.4463 64.7785 34.9736 68.2807 34.9736H77.3781C78.3604 34.9736 79.1292 34.2048 79.1292 33.2225C79.1292 32.2402 78.3604 31.4714 77.3781 31.4714H68.0245L78.1041 24.1679C80.9657 22.1178 79.4709 17.5905 75.9686 17.5905H66.8286C65.8462 17.5905 65.0774 18.3592 65.0774 19.3416C65.0774 20.3239 65.8462 21.0927 66.8286 21.0927H76.2249Z" fill="#FF5000"/>
<path id="Vector_2" d="M93.9924 31.4286H86.5608C86.1764 31.4286 85.8774 31.1297 85.8774 30.7453V21.7761C85.8774 21.3917 86.1764 21.0927 86.5608 21.0927H93.9924C94.3768 21.0927 94.6758 21.3917 94.6758 21.7761V30.7453C94.6758 31.1297 94.3768 31.4286 93.9924 31.4286ZM94.6758 17.5477H85.8774C83.8273 17.5477 82.1616 19.2134 82.1616 21.2635V31.2578C82.1616 33.3079 83.8273 34.9736 85.8774 34.9736H94.6758C96.7259 34.9736 98.3916 33.3079 98.3916 31.2578V21.2635C98.3916 19.2134 96.7259 17.5477 94.6758 17.5477Z" fill="#FF5000"/>
<path id="Vector_3" d="M113.767 31.4286H106.336C105.951 31.4286 105.652 31.1297 105.652 30.7453V21.7761C105.652 21.3917 105.951 21.0927 106.336 21.0927H113.767C114.152 21.0927 114.451 21.3917 114.451 21.7761V30.7453C114.451 31.1297 114.152 31.4286 113.767 31.4286ZM114.451 17.5477H105.652C103.602 17.5477 101.937 19.2134 101.937 21.2635V31.2578C101.937 33.3079 103.602 34.9736 105.652 34.9736H114.451C116.501 34.9736 118.167 33.3079 118.167 31.2578V21.2635C118.167 19.2134 116.501 17.5477 114.451 17.5477Z" fill="#FF5000"/>
<path id="Vector_4" d="M194.319 33.2225V21.7761C194.319 21.3917 194.618 21.0927 195.003 21.0927H198.249C199.231 21.0927 200 20.3239 200 19.3416C200 18.3592 199.231 17.5905 198.249 17.5905H194.319C192.269 17.5905 190.604 19.2562 190.604 21.3063V33.2652C190.604 34.2903 191.415 35.1018 192.44 35.1018C193.465 35.1018 194.277 34.2903 194.277 33.2652L194.319 33.2225Z" fill="#FF5000"/>
<path id="Vector_5" d="M139.223 17.5477H125.385C123.335 17.5477 121.669 19.2134 121.669 21.2635V33.1798C121.669 34.2048 122.48 35.0163 123.505 35.0163C124.531 35.0163 125.342 34.2048 125.342 33.1798V21.7761C125.342 21.3917 125.641 21.0927 126.025 21.0927H130.467V33.1798C130.467 34.2048 131.279 35.0163 132.304 35.0163C133.329 35.0163 134.14 34.2048 134.14 33.1798V21.0927H138.497C138.881 21.0927 139.18 21.3917 139.18 21.7761V33.1798C139.18 34.2048 139.992 35.0163 141.017 35.0163C142.042 35.0163 142.853 34.2048 142.853 33.1798V21.2635C142.853 19.2134 141.188 17.5477 139.138 17.5477H139.223Z" fill="#FF5000"/>
<path id="Vector_6" d="M164.038 17.5477H150.2C148.149 17.5477 146.484 19.2134 146.484 21.2635V33.1798C146.484 34.2048 147.295 35.0163 148.32 35.0163C149.345 35.0163 150.157 34.2048 150.157 33.1798V21.7761C150.157 21.3917 150.456 21.0927 150.84 21.0927H155.282V33.1798C155.282 34.2048 156.094 35.0163 157.119 35.0163C158.144 35.0163 158.955 34.2048 158.955 33.1798V21.0927H163.312C163.696 21.0927 163.995 21.3917 163.995 21.7761V33.1798C163.995 34.2048 164.807 35.0163 165.832 35.0163C166.857 35.0163 167.668 34.2048 167.668 33.1798V21.2635C167.668 19.2134 166.002 17.5477 163.952 17.5477H164.038Z" fill="#FF5000"/>
<path id="Vector_7" d="M174.972 21.7761C174.972 21.3917 175.271 21.0927 175.655 21.0927H183.087C183.471 21.0927 183.77 21.3917 183.77 21.7761V24.3814C183.77 24.7658 183.471 25.0648 183.087 25.0648H174.929V21.7761H174.972ZM183.77 28.6098C185.82 28.6098 187.486 26.944 187.486 24.8939V21.2635C187.486 19.2134 185.82 17.5477 183.77 17.5477H174.972C172.922 17.5477 171.256 19.2134 171.256 21.2635V31.2578C171.256 33.3079 172.922 34.9736 174.972 34.9736H184.881C185.863 34.9736 186.632 34.2048 186.632 33.2225C186.632 32.2401 185.863 31.4714 184.881 31.4714H175.655C175.271 31.4714 174.972 31.1724 174.972 30.788V28.6525H183.77V28.6098Z" fill="#FF5000"/>
</g>
<g id="Logo_2">
<path id="Vector_8" d="M45.9858 42.1062C45.9431 42.0208 45.8577 41.9781 45.7723 41.8927C39.2376 34.9309 29.7558 32.2828 21.0429 34.1194C21.0002 34.1194 20.9575 34.0766 21.0002 34.0339L44.6191 11.8672C45.0889 11.4401 45.516 10.9703 46.0285 10.415C46.7119 9.68894 46.7546 8.53575 46.114 7.80967C45.3452 6.99817 44.0639 6.99817 43.3378 7.80967C42.868 8.3222 42.4836 8.74931 42.0565 9.09099C37.6573 13.2339 31.8486 15.4121 25.7837 15.2413C19.7189 15.0705 14.0811 12.5078 9.93814 8.10865C9.89543 8.06594 9.85272 8.02323 9.81001 7.98052C9.7673 7.93781 9.7673 7.93781 9.7673 7.8951C9.08393 7.12631 7.93075 6.99817 7.16196 7.59612C6.30775 8.27949 6.22233 9.5181 6.94841 10.3296L7.03383 10.415C7.11925 10.5004 7.16196 10.5431 7.24738 10.6286C12.0737 15.7965 18.6084 18.7436 25.6983 18.9571C25.9973 18.9571 26.2963 18.9571 26.5952 18.9571C28.4318 18.9571 30.2256 18.7436 31.9768 18.4019C32.0195 18.4019 32.0622 18.4446 32.0195 18.4873L8.44327 40.6114C7.97346 41.0385 7.54635 41.5083 7.03383 42.0635C6.35046 42.7896 6.30775 43.9428 6.94841 44.6689C7.7172 45.4804 8.99851 45.4804 9.72459 44.6689C10.1944 44.1563 10.5788 43.7292 11.0059 43.3875C20.146 34.8027 34.5394 35.2725 43.0815 44.4126C43.1242 44.4553 43.1669 44.498 43.2096 44.5407C43.2524 44.5834 43.2951 44.6261 43.3378 44.7116C43.7222 45.096 44.2347 45.3095 44.7045 45.3095C45.1316 45.3095 45.6014 45.1387 45.9431 44.8397C46.7119 44.1563 46.7546 42.9604 46.0712 42.1916L45.9858 42.1062Z" fill="#FF5000"/>
<path id="Vector_9" d="M9.98088 25.4065C10.0236 25.3637 10.0236 25.321 9.98088 25.321L7.93077 24.0824C6.26506 23.1001 4.68477 21.9469 3.14719 20.7083C2.46382 20.1531 1.48148 20.0676 0.755401 20.6229C-0.226941 21.3917 -0.226941 22.8011 0.66998 23.5272C1.69503 24.3814 2.7628 25.1929 3.83056 25.919C3.87327 25.919 3.87327 25.9617 3.83056 26.0044L0.62727 29.0368C-0.0988093 29.7202 -0.226941 30.8734 0.413717 31.6422C0.798112 32.0693 1.31064 32.3256 1.86587 32.3256C2.33569 32.3256 2.7628 32.1547 3.14719 31.813L9.98088 25.4065Z" fill="#FF5000"/>
<path id="Vector_10" d="M23.5629 22.0323C22.1961 21.9469 20.8294 21.7334 19.9752 21.5198C14.5082 20.2812 9.5538 17.5477 5.58173 13.5757C4.81294 12.8069 3.53162 12.8496 2.80554 13.7038C2.16488 14.4726 2.29302 15.5831 3.01909 16.3091C6.64949 19.8968 11.006 22.5876 15.7895 24.2106C15.8323 24.2106 15.8323 24.296 15.7895 24.296L3.65975 35.657C3.4462 35.8706 3.18994 36.0841 2.97638 36.3404C2.20759 37.1092 2.16488 38.3905 2.97638 39.1166C3.31807 39.4582 3.78788 39.5864 4.2577 39.5864C4.72752 39.5864 5.19733 39.4155 5.58173 39.0311C5.79528 38.8176 6.00883 38.604 6.26509 38.3905L23.6056 22.1178C23.6483 22.0751 23.6056 22.0323 23.5629 22.0323Z" fill="#FF5000"/>
<path id="Vector_11" d="M52.3925 29.0796C51.3674 28.2254 50.2997 27.4139 49.2319 26.6878C49.1892 26.6878 49.1892 26.6451 49.2319 26.6024L52.4352 23.57C53.1613 22.8866 53.2894 21.7334 52.6488 20.9646C52.2644 20.5375 51.7518 20.2812 51.1966 20.2812C50.7268 20.2812 50.2997 20.4521 49.9153 20.7938L43.0816 27.2004C43.0389 27.2431 43.0389 27.2858 43.0816 27.2858L45.1317 28.5244C46.7974 29.5067 48.3777 30.6599 49.9153 31.8985C50.5986 32.4537 51.581 32.5392 52.3071 31.9839C53.2894 31.2151 53.2894 29.8057 52.3925 29.0796Z" fill="#FF5000"/>
<path id="Vector_12" d="M37.2729 28.3962C37.2302 28.3962 37.2302 28.3108 37.2729 28.3108L49.4027 16.9498C49.6163 16.7362 49.8725 16.5226 50.0861 16.2664C50.8549 15.4976 50.8976 14.2163 50.0861 13.4902C49.7444 13.1485 49.2746 13.0204 48.8048 13.0204C48.335 13.0204 47.8651 13.1912 47.4807 13.5756C47.2672 13.7892 47.0536 14.0027 46.7974 14.2163L29.4569 30.489C29.4142 30.5317 29.4569 30.5744 29.4996 30.5744C30.9091 30.6598 32.2331 30.8734 33.0873 31.0869C38.5542 32.3255 43.5087 35.059 47.4807 39.0311C48.2495 39.7999 49.5308 39.7572 50.2569 38.903C50.8976 38.1342 50.7695 37.0237 50.0434 36.2976C46.413 32.7099 42.0565 30.0192 37.2729 28.3962Z" fill="#FF5000"/>
<path id="Vector_13" d="M13.1842 45.7794C12.9279 46.0357 12.6717 46.2492 12.4154 46.5482C11.6893 47.2743 11.732 48.4702 12.4581 49.1962C13.1842 49.9223 14.3801 49.8796 15.1062 49.1535C15.3197 48.94 15.5333 48.7264 15.7041 48.5556C21.9826 42.6615 31.9341 42.9178 37.9136 49.1535C38.298 49.5379 38.7678 49.7515 39.2803 49.7515C39.7501 49.7515 40.22 49.5806 40.5616 49.239C41.2877 48.5129 41.3304 47.3597 40.6043 46.5909C33.2581 38.8603 20.9148 38.5186 13.1415 45.8221L13.1842 45.7794Z" fill="#FF5000"/>
<path id="Vector_14" d="M32.831 49.1108C28.9444 46.8472 24.0754 46.8472 20.1887 49.1108C19.2918 49.6234 18.9928 50.7765 19.5053 51.6735C20.0179 52.5704 21.171 52.8694 22.068 52.3568C24.8014 50.7765 28.2183 50.7765 30.9518 52.3568C31.2507 52.5277 31.5924 52.6131 31.8914 52.6131C32.532 52.6131 33.1727 52.2714 33.5144 51.6735C34.0269 50.7765 33.7279 49.6234 32.831 49.1108Z" fill="#FF5000"/>
<path id="Vector_15" d="M26.5526 12.1235C31.3362 12.1235 36.1198 10.3723 39.8783 6.87008C40.1345 6.61382 40.3908 6.40027 40.6471 6.10129C41.3731 5.37521 41.3304 4.17932 40.6044 3.45324C39.8783 2.72716 38.6824 2.76987 37.9563 3.49595C37.7428 3.7095 37.5292 3.92306 37.3584 4.0939C31.0799 9.98795 21.1284 9.73169 15.1489 3.49595C14.4228 2.76987 13.2696 2.72716 12.5008 3.45324C11.7748 4.17932 11.732 5.3325 12.4581 6.10129C16.3021 10.1161 21.4273 12.1235 26.5953 12.1235H26.5526Z" fill="#FF5000"/>
<path id="Vector_16" d="M20.1887 3.49596C22.1534 4.64914 24.3316 5.20438 26.5098 5.20438C28.6881 5.20438 30.8663 4.64914 32.7883 3.49596C33.6852 2.98343 33.9842 1.83025 33.4717 0.933327C32.9591 0.0364059 31.8059 -0.262568 30.909 0.249958C28.1756 1.83025 24.7587 1.83025 22.0252 0.249958C21.1283 -0.262568 19.9751 0.0364059 19.4626 0.933327C18.9501 1.83025 19.2491 2.98343 20.146 3.49596H20.1887Z" fill="#FF5000"/>
</g>
</g>
<defs>
<clipPath id="clip0_822_4637">
<rect width="200" height="53" fill="white"/>
</clipPath>
</defs>
</svg>
